<svg id="Layer_1" data-name="Layer 1" xmlns="http://www.w3.org/2000/svg" xmlns:xlink="http://www.w3.org/1999/xlink" viewBox="0 0 187.08 258.94"><defs><style>.cls-1{fill:none;}.cls-2{clip-path:url(#clip-path);}.cls-3{fill:#ff9d00;}.cls-4{fill:#555;}.cls-5{clip-path:url(#clip-path-2);}.cls-6{fill:#fff;}.cls-7{clip-path:url(#clip-path-3);}.cls-8{clip-path:url(#clip-path-4);}.cls-9{clip-path:url(#clip-path-5);}.cls-10{clip-path:url(#clip-path-6);}</style><clipPath id="clip-path"><ellipse class="cls-1" cx="95.6" cy="165.65" rx="91.48" ry="76.64"/></clipPath><clipPath id="clip-path-2"><ellipse class="cls-1" cx="96.43" cy="90.82" rx="72.55" ry="90.82"/></clipPath><clipPath id="clip-path-3"><ellipse class="cls-1" cx="40.39" cy="121.13" rx="23.48" ry="48.85" transform="matrix(0.99, -0.16, 0.16, 0.99, -19.3, 8.25)"/></clipPath><clipPath id="clip-path-4"><ellipse class="cls-1" cx="53.13" cy="203.72" rx="14.28" ry="56.08" transform="translate(-35.97 12.97) rotate(-10.42)"/></clipPath><clipPath id="clip-path-5"><ellipse class="cls-1" cx="150.62" cy="118.63" rx="48.85" ry="23.48" transform="matrix(0.16, -0.99, 0.99, 0.16, 8.91, 247.78)"/></clipPath><clipPath id="clip-path-6"><ellipse class="cls-1" cx="137.88" cy="201.23" rx="56.08" ry="14.28" transform="translate(-84.97 300.45) rotate(-79.58)"/></clipPath></defs><g class="cls-2"><ellipse class="cls-3" cx="95.6" cy="165.65" rx="91.48" ry="76.64"/><circle class="cls-4" cx="14.88" cy="152.88" r="5.45"/><circle class="cls-4" cx="23.88" cy="165.65" r="5.45"/><circle class="cls-4" cx="12.98" cy="180.14" r="5.45"/><circle class="cls-4" cx="7.35" cy="138.28" r="5.45"/><circle class="cls-4" cx="5.45" cy="165.54" r="5.45"/><circle class="cls-4" cx="29.33" cy="185.59" r="5.45"/><circle class="cls-4" cx="26.73" cy="203.72" r="5.45"/><circle class="cls-4" cx="31.66" cy="220.47" r="5.45"/><circle class="cls-4" cx="13.14" cy="199.06" r="5.45"/><circle class="cls-4" cx="163.24" cy="169.86" r="5.45"/><circle class="cls-4" cx="174.42" cy="152.88" r="5.45"/><circle class="cls-4" cx="179.88" cy="174.29" r="5.45"/><circle class="cls-4" cx="157.79" cy="209.17" r="5.45"/></g><g class="cls-5"><ellipse class="cls-3" cx="96.43" cy="90.82" rx="72.55" ry="90.82"/><ellipse class="cls-6" cx="95.6" cy="80.77" rx="53.15" ry="60.83"/><circle class="cls-4" cx="46.03" cy="53.5" r="5.45"/><circle class="cls-4" cx="32.13" cy="68.3" r="5.45"/><circle class="cls-4" cx="24.85" cy="101.79" r="5.45"/><circle class="cls-4" cx="151.14" cy="34.96" r="5.45"/><circle class="cls-4" cx="154.78" cy="61.27" r="5.45"/><circle class="cls-4" cx="40.54" cy="85.12" r="5.45"/><circle class="cls-4" cx="93.72" cy="135.41" r="5.45"/><circle class="cls-4" cx="84.16" cy="161.45" r="5.45"/><circle class="cls-4" cx="133.69" cy="54.59" r="5.45"/><circle class="cls-4" cx="93.19" cy="85.12" r="5.45"/><circle class="cls-4" cx="68.89" cy="104.12" r="5.45"/><circle class="cls-4" cx="123.72" cy="85.43" r="5.45"/><circle class="cls-4" cx="65.19" cy="73.9" r="5.45"/><circle class="cls-4" cx="105.59" cy="59.8" r="5.45"/><circle class="cls-4" cx="54.94" cy="90.61" r="5.45"/><circle class="cls-4" cx="60.83" cy="145.44" r="5.45"/><circle class="cls-4" cx="108.78" cy="108.47" r="5.45"/><circle class="cls-4" cx="126.22" cy="134.97" r="5.45"/><circle class="cls-4" cx="132.61" cy="104.13" r="5.45"/><circle class="cls-4" cx="74.82" cy="117.47" r="5.45"/><circle class="cls-4" cx="113.76" cy="158.28" r="5.45"/><circle class="cls-4" cx="40.83" cy="34.22" r="6.11"/><circle class="cls-4" cx="74.5" cy="54.28" r="5.45"/></g><ellipse class="cls-6" cx="95.6" cy="168.83" rx="53.15" ry="60.83"/><circle class="cls-4" cx="108.78" cy="108.47" r="5.45"/><circle class="cls-4" cx="74.82" cy="117.47" r="5.45"/><circle class="cls-4" cx="94.75" cy="131.23" r="5.45"/><circle class="cls-4" cx="106.9" cy="158.33" r="5.45"/><circle class="cls-4" cx="116.56" cy="180.14" r="5.45"/><circle class="cls-4" cx="96.93" cy="191.35" r="5.45"/><circle class="cls-4" cx="73.26" cy="196.03" r="5.45"/><circle class="cls-4" cx="108.46" cy="216.59" r="5.45"/><circle class="cls-4" cx="83.54" cy="224.38" r="5.45"/><circle class="cls-4" cx="80.73" cy="169.86" r="5.45"/><circle class="cls-4" cx="118.12" cy="135.59" r="5.45"/><circle class="cls-4" cx="76.99" cy="144.62" r="5.45"/><g class="cls-7"><ellipse class="cls-3" cx="39.21" cy="121.6" rx="27.8" ry="52.21" transform="translate(-19.39 8.07) rotate(-9.43)"/><ellipse class="cls-6" cx="57.89" cy="119.94" rx="23.48" ry="48.85" transform="translate(-18.87 11.11) rotate(-9.43)"/><circle class="cls-4" cx="22.16" cy="86.99" r="5.45"/><circle class="cls-4" cx="44.91" cy="82.63" r="5.45"/><circle class="cls-4" cx="33.38" cy="102.57" r="5.45"/><circle class="cls-4" cx="51.14" cy="101.01" r="5.45"/><circle class="cls-4" cx="21.23" cy="113.16" r="5.45"/><circle class="cls-4" cx="48.64" cy="123.13" r="5.45"/><circle class="cls-4" cx="30.26" cy="128.11" r="5.45"/><circle class="cls-4" cx="19.98" cy="143.07" r="5.45"/><circle class="cls-4" cx="40.54" cy="145.56" r="5.45"/><circle class="cls-4" cx="37.43" cy="163.94" r="5.45"/><circle class="cls-4" cx="60.79" cy="139.33" r="5.45"/><circle class="cls-4" cx="60.17" cy="158.33" r="5.45"/><circle class="cls-4" cx="65.31" cy="117.78" r="5.45"/></g><g class="cls-8"><ellipse class="cls-3" cx="53.13" cy="203.72" rx="14.28" ry="56.08" transform="translate(-35.97 12.97) rotate(-10.42)"/><circle class="cls-4" cx="40.54" cy="145.56" r="5.45"/><circle class="cls-4" cx="37.43" cy="163.94" r="5.45"/><ellipse class="cls-6" cx="63.93" cy="203.72" rx="14.28" ry="56.08" transform="translate(-35.79 14.92) rotate(-10.42)"/><circle class="cls-4" cx="35.56" cy="186.06" r="5.45"/><circle class="cls-4" cx="59.24" cy="178.58" r="5.45"/><circle class="cls-4" cx="51.76" cy="198.83" r="5.45"/><circle class="cls-4" cx="67.65" cy="205.68" r="5.45"/><circle class="cls-4" cx="55.81" cy="221.57" r="5.45"/><circle class="cls-4" cx="40.54" cy="212.85" r="5.45"/></g><g class="cls-9"><ellipse class="cls-3" cx="151.8" cy="119.1" rx="52.21" ry="27.8" transform="translate(9.44 249.34) rotate(-80.57)"/><ellipse class="cls-6" cx="133.12" cy="117.45" rx="48.85" ry="23.48" transform="translate(-4.55 229.53) rotate(-80.57)"/><circle class="cls-4" cx="168.85" cy="84.5" r="5.45"/><circle class="cls-4" cx="146.11" cy="80.14" r="5.45"/><circle class="cls-4" cx="157.63" cy="100.07" r="5.45"/><circle class="cls-4" cx="139.88" cy="98.52" r="5.45"/><circle class="cls-4" cx="169.78" cy="110.67" r="5.45"/><circle class="cls-4" cx="142.37" cy="120.63" r="5.45"/><circle class="cls-4" cx="160.75" cy="125.62" r="5.45"/><circle class="cls-4" cx="171.03" cy="140.57" r="5.45"/><circle class="cls-4" cx="150.47" cy="143.07" r="5.45"/><circle class="cls-4" cx="153.58" cy="161.45" r="5.45"/><circle class="cls-4" cx="130.22" cy="136.83" r="5.45"/><circle class="cls-4" cx="130.84" cy="155.84" r="5.45"/><circle class="cls-4" cx="125.7" cy="115.29" r="5.45"/></g><g class="cls-10"><ellipse class="cls-3" cx="137.88" cy="201.23" rx="56.08" ry="14.28" transform="translate(-84.97 300.45) rotate(-79.58)"/><circle class="cls-4" cx="150.47" cy="143.07" r="5.45"/><circle class="cls-4" cx="153.58" cy="161.45" r="5.45"/><ellipse class="cls-6" cx="127.08" cy="201.23" rx="56.08" ry="14.28" transform="translate(-93.81 289.82) rotate(-79.58)"/><circle class="cls-4" cx="155.45" cy="183.57" r="5.45"/><circle class="cls-4" cx="131.78" cy="176.09" r="5.45"/><circle class="cls-4" cx="139.25" cy="196.34" r="5.45"/><circle class="cls-4" cx="123.36" cy="203.19" r="5.45"/><circle class="cls-4" cx="135.2" cy="219.08" r="5.45"/><circle class="cls-4" cx="150.47" cy="210.36" r="5.45"/></g></svg>