<svg id="Layer_1" data-name="Layer 1" xmlns="http://www.w3.org/2000/svg" xmlns:xlink="http://www.w3.org/1999/xlink" viewBox="0 0 141.86 127.21"><defs><style>.cls-1,.cls-7{fill:none;}.cls-2{fill:#ff9d00;}.cls-3{fill:#fff;}.cls-4{clip-path:url(#clip-path);}.cls-5{fill:#555;}.cls-6{clip-path:url(#clip-path-2);}.cls-7{stroke:#555;stroke-linecap:round;stroke-miterlimit:10;stroke-width:3.74px;}.cls-8{clip-path:url(#clip-path-3);}.cls-9{clip-path:url(#clip-path-4);}</style><clipPath id="clip-path"><circle class="cls-1" cx="69.68" cy="63.05" r="56.08"/></clipPath><clipPath id="clip-path-2"><circle class="cls-1" cx="69.68" cy="89.86" r="37.58"/></clipPath><clipPath id="clip-path-3"><circle class="cls-1" cx="42.49" cy="54.95" r="13.71"/></clipPath><clipPath id="clip-path-4"><circle class="cls-1" cx="95.24" cy="54.95" r="13.71"/></clipPath></defs><circle class="cls-2" cx="23.11" cy="23.11" r="23.11"/><circle class="cls-3" cx="23.11" cy="23.11" r="17.76"/><circle class="cls-2" cx="118.75" cy="23.11" r="23.11"/><circle class="cls-3" cx="118.75" cy="23.11" r="17.76"/><g class="cls-4"><circle class="cls-3" cx="69.68" cy="63.05" r="56.08"/><circle class="cls-2" cx="69.68" cy="25.04" r="71.03"/><circle class="cls-5" cx="61.95" cy="42.32" r="2.34"/><circle class="cls-5" cx="23.79" cy="55.87" r="2.34"/><circle class="cls-5" cx="31.57" cy="69.58" r="2.34"/><circle class="cls-5" cx="113.82" cy="55.25" r="2.34"/><circle class="cls-5" cx="112.57" cy="63.04" r="2.34"/><circle class="cls-5" cx="106.97" cy="69.58" r="2.34"/><circle class="cls-5" cx="25.03" cy="64.6" r="2.34"/><circle class="cls-5" cx="41.54" cy="35" r="2.34"/><circle class="cls-5" cx="75.94" cy="37.76" r="3.28"/><circle class="cls-5" cx="113.2" cy="84.85" r="3.28"/><circle class="cls-5" cx="112.26" cy="39.99" r="3.28"/><circle class="cls-5" cx="65.81" cy="31.93" r="3.28"/><circle class="cls-5" cx="21.29" cy="74.25" r="3.28"/><circle class="cls-5" cx="72.03" cy="45.66" r="1.64"/><circle class="cls-5" cx="67.71" cy="39.67" r="1.64"/><circle class="cls-5" cx="53.28" cy="38.32" r="1.64"/><circle class="cls-5" cx="32.92" cy="39.99" r="1.64"/><circle class="cls-5" cx="82.98" cy="42.48" r="1.64"/><circle class="cls-5" cx="73.32" cy="51.51" r="1.64"/><circle class="cls-5" cx="79.55" cy="48.09" r="1.64"/><circle class="cls-5" cx="87.15" cy="33.3" r="3.74"/><circle class="cls-5" cx="123.48" cy="61.48" r="3.74"/><circle class="cls-5" cx="75.81" cy="16" r="3.74"/><circle class="cls-5" cx="64.47" cy="51.35" r="2.65"/><circle class="cls-5" cx="62.59" cy="19.22" r="4.19"/><circle class="cls-5" cx="66.78" cy="6.03" r="4.19"/><circle class="cls-5" cx="48.4" cy="13.82" r="4.19"/><circle class="cls-5" cx="88.59" cy="19.11" r="4.19"/><circle class="cls-5" cx="121.61" cy="89.52" r="4.19"/><circle class="cls-5" cx="101.37" cy="33.57" r="4.19"/><circle class="cls-5" cx="119.74" cy="75.81" r="4.19"/><circle class="cls-5" cx="110.79" cy="27.24" r="2.94"/><circle class="cls-5" cx="27.84" cy="101.98" r="2.94"/><circle class="cls-5" cx="100.01" cy="22.88" r="3.49"/><circle class="cls-5" cx="52.48" cy="28.92" r="4.19"/><circle class="cls-5" cx="108.84" cy="97.93" r="4.19"/><circle class="cls-5" cx="17.87" cy="86.09" r="4.19"/><circle class="cls-5" cx="14.44" cy="61.79" r="4.19"/><circle class="cls-5" cx="29.71" cy="89.83" r="4.19"/><circle class="cls-5" cx="41.52" cy="23.14" r="2.86"/><circle class="cls-5" cx="30.64" cy="30.64" r="4.36"/><circle class="cls-5" cx="23.38" cy="42.94" r="4.36"/><circle class="cls-5" cx="76.72" cy="27.06" r="3.74"/><circle class="cls-5" cx="121.92" cy="48.09" r="3.74"/><circle class="cls-5" cx="85.47" cy="10.08" r="3.74"/></g><g class="cls-6"><circle class="cls-3" cx="69.68" cy="89.86" r="37.58"/><circle class="cls-2" cx="69.96" cy="77.38" r="32.55"/><circle class="cls-5" cx="97.93" cy="99.8" r="2.34"/><circle class="cls-5" cx="92.01" cy="104.47" r="2.34"/><circle class="cls-5" cx="84.85" cy="108.21" r="2.34"/><circle class="cls-5" cx="78.62" cy="110.7" r="2.34"/><circle class="cls-5" cx="97.31" cy="91.08" r="2.34"/><circle class="cls-5" cx="91.54" cy="95.75" r="2.34"/><circle class="cls-5" cx="85.47" cy="100.42" r="2.34"/><circle class="cls-5" cx="78.3" cy="102.6" r="2.34"/><circle class="cls-5" cx="41.86" cy="100.42" r="2.34"/><circle class="cls-5" cx="47.77" cy="105.1" r="2.34"/><circle class="cls-5" cx="54.94" cy="108.84" r="2.34"/><circle class="cls-5" cx="61.17" cy="111.33" r="2.34"/><circle class="cls-5" cx="42.48" cy="91.7" r="2.34"/><circle class="cls-5" cx="48.24" cy="96.37" r="2.34"/><circle class="cls-5" cx="54.32" cy="101.05" r="2.34"/><circle class="cls-5" cx="61.48" cy="103.23" r="2.34"/></g><polygon class="cls-5" points="54.01 85.47 86.48 85.47 69.45 98.87 54.01 85.47"/><path class="cls-7" d="M44.66,107.75c3.12,3.74,6.87,6.82,11.22,8.1,5.3,1.55,12.33-.93,13.8-2.81V90.66"/><path class="cls-7" d="M94.69,107.75c-3.11,3.74-6.86,6.82-11.21,8.1-5.3,1.55-12.34-.93-13.8-2.81"/><g class="cls-8"><circle class="cls-3" cx="42.49" cy="54.95" r="13.71"/><circle class="cls-5" cx="42.49" cy="54.95" r="9.55"/><circle class="cls-3" cx="36.44" cy="61.6" r="5.73"/><circle class="cls-3" cx="48.52" cy="48.7" r="4.46"/></g><g class="cls-9"><circle class="cls-3" cx="95.24" cy="54.95" r="13.71"/><circle class="cls-5" cx="95.24" cy="54.95" r="9.55"/><circle class="cls-3" cx="89.19" cy="61.6" r="5.73"/><circle class="cls-3" cx="101.27" cy="48.7" r="4.46"/></g></svg>