<svg viewBox="0 0 946 196">
    <g>
        <path class="happy-birthday-text-path" pathLength="1" d="M25.17,26.5s5-15.5,17.5-9,.5,31,.5,31l-28,81.5"/>
        <path class="happy-birthday-text-path" pathLength="1" d="M21.67,69a8.51,8.51,0,0,0,3,4.5c2.5,2,6.5,3,13.5,3h48"/>
        <path class="happy-birthday-text-path" pathLength="1" d="M105.67,18.5 L70.17,130" />
        <path class="happy-birthday-text-path" pathLength="1" d="M151.17,64c-11-9.5-31-8-41,15.5s-16,49.5,8.5,52,21.5-17.5,27-34,7-22.5,7-29.5c-1.5,27-22,57-7.5,64,4.07,2,17-3,26-32,6-19.18,13-40,13-40l-39,116.5s33.5-103,41-111,25-12,31-1.5,6.5,32-4,48-18,19-26,19.5-16-4-13-12,18-7,23.5-1.5,14.5,15.5,21.5,11.5,17.5-25,24.5-46,8.5-23.5,8.5-23.5l-40,116.5s33-104.5,42-111,36-15.5,35,15.5c-1.05,32.52-21,48-27,50s-21,3.5-21-6.5,13-14.5,20-10,14,15,22,15,18.5-11,21-21,4-19.5,6.5-26.5,8.5-22,8.5-22-11,25-14,36.5-2.5,36,8.5,36,22-3,32.5-34.5,14-37.5,14-37.5-30,86.5-34.5,97.5-13.5,25.5-21,20,0-16.5,5.5-22.5,13-12,17-13,17.5-2,26.5-11,20-22.5,21-31"/>
        <path class="happy-birthday-text-path" pathLength="1" d="M441.17,109.5s15.5-55,24-71,25-33,37.5-26,18.5,24-2,40-41,7.5-41,7.5,56.5-1.5,46,46.5-76.5,22.5-77.5,1.5"/>
        <path class="happy-birthday-text-path" pathLength="1" d="M538.67,60s-29,63-10,72,30.5-32,35-41.5,20-37.5,16.5-43-12.5-4.5-14,7.5,4,15.5,9.5,18.5,14.5,3,8.5,17.5-15,28.5-11.5,36,11,6.5,18,.5,14-20.5,14-20.5l6-13a83.65,83.65,0,0,0,15-18.5c6-10.5,20.5-35,8.5-39.5s-24.5,54-24.5,54-5,19-3,26.5,10.5,22,28.5,12S681.67,19,681.67,19l-37.5,111s17.54-59.28,33.5-67.5c16.5-8.5,28.5-6,24.5,16.5s-15,43-11.5,49.5,11.5,6,18.5-3.5a139.73,139.73,0,0,0,12-20s.5-28.5,13.5-38,32.5-13.5,36,2,4-16.5-17-12.5-34,37.5-32,58.5,24.5,22,34,10.5c7.86-9.52,37-107,37-107s-35,91-32.5,104,18,15,26-6.5,17.5-60.5,40.5-58,15,5,15,5-14.25-13.25-26.49-1-24.5,30-24,53,29,21.5,35,9,15-38,16-43.5.5-14,.5-14-10.5,45.5-11.5,59.5,16,4,20.5-4,13-35.5,15.5-44.5a84.29,84.29,0,0,1,7.5-17.5s-14.5,38-15,55.5,17.5,25,29,9.5,28-65.5,28-65.5-35,102-41.5,111-13,10.5-17.5,6,6-25,14-28,34.5-12.5,42-21.5,13.5-19.5,15.5-26.5"/>
        <path class="happy-birthday-text-path" pathLength="1" d="M547.67,37c-.5-2-5,0-4.5,3s4,.5,4,.5"/><line class="cls-1" x1="607.17" y1="59.5" x2="649.67" y2="59.5"/>
    </g>
</svg>