<svg viewBox="0 0 319 152">
    <path class="cls-1" d="M25.5,22.17s4-17.5,18.5-8.5-26.5,100.5-26.5,100.5,16.5-2,23,3.5c8.37,7.08,10.5,17,18.5,21,10,5,13,5,20,5"/>
    <path class="cls-1" d="M93,55.67s-14.5,33-16,49.5,6,27,17.5,22,17.5-22.5,21.5-33,16-34.5,24.5-40.5c0,0-3.5,1.5-5,11.5s19,11,17,38c-1.47,19.87-16.5,24-23,24s-11-5.5-11-5.5,19,12,35.5,0c20.4-14.84,19.5-30.5,26.5-45,4.35-9,10-17,16.5-22.5,0,0-9.5,6.5-4,16.5s16,12.5,15.5,28.5-7.5,24.5-15,27-12.5,1-19-4c0,0,17.24,11.59,35,.5,12-7.5,15.5-15.5,20.5-29s16.5-48.5,44.5-40.5c0,0-19.63-12.57-39,24.5-11.5,22-8.5,48,8.5,50s25.5-24,29.5-34,11.5-29.5,4.5-35c0,0,5,6,1.5,19-6.28,23.3-25,44.5-8,48.5S299,96.67,299,96.67"/>
    <path class="cls-1" d="M103,30.17s-7.5-1.5-6,4,4,2.5,6-.5"/>
</svg>